<?xml version="1.0" standalone="no"?>
<!DOCTYPE svg PUBLIC "-//W3C//DTD SVG 20010904//EN"
 "http://www.w3.org/TR/2001/REC-SVG-20010904/DTD/svg10.dtd">
<svg version="1.0" xmlns="http://www.w3.org/2000/svg"
 width="298.000000pt" height="322.000000pt" viewBox="0 0 298.000000 322.000000"
 preserveAspectRatio="xMidYMid meet">
<metadata>
Created by potrace 1.16, written by Peter Selinger 2001-2019
</metadata>
<g transform="translate(0.000000,322.000000) scale(0.100000,-0.100000)"
fill="currentColor" stroke="none">
<path d="M1875 2992 c-2 -2 -225 -6 -496 -8 -271 -3 -496 -7 -500 -9 -4 -3
-10 -51 -14 -107 -9 -138 -9 -138 -53 -138 -61 0 -66 8 -68 112 -2 152 16 140
-200 137 -133 -2 -188 -6 -195 -15 -9 -11 -11 -374 -4 -709 1 -49 5 -432 9
-850 6 -644 11 -963 15 -1097 1 -25 3 -26 44 -21 96 10 87 -11 82 196 -3 100
-7 423 -10 717 -3 294 -8 777 -11 1072 -6 426 -4 541 6 553 8 10 30 15 66 15
64 0 63 1 68 -137 1 -51 5 -96 9 -99 16 -16 421 -7 534 11 31 6 31 6 38 110 5
70 12 108 21 116 12 10 280 16 410 10 31 -1 38 -23 44 -141 5 -105 5 -105 290
-102 156 2 288 6 292 8 4 3 8 54 8 114 0 122 5 130 72 130 66 0 66 -1 72 -245
8 -318 17 -979 25 -1682 4 -448 9 -615 18 -624 8 -8 29 -9 68 -4 56 7 56 7 50
278 -3 150 -7 448 -10 662 -13 1080 -23 1635 -29 1698 -1 15 -7 32 -13 38 -7
7 -59 10 -139 8 -203 -3 -213 -4 -224 -15 -7 -7 -14 -56 -17 -110 -7 -117 -13
-134 -53 -134 -52 0 -66 25 -73 135 -5 65 -12 104 -21 113 -12 13 -101 23
-111 14z m-18 -167 c17 -51 5 -85 -31 -85 -30 0 -46 25 -46 72 0 69 54 78 77
13z m-799 13 c7 -7 12 -29 12 -50 0 -31 -4 -39 -24 -44 -53 -13 -83 35 -56 87
12 21 50 25 68 7z"/>
<path d="M1425 2651 c-25 -7 -161 -82 -235 -130 -30 -19 -89 -55 -130 -80
-149 -90 -296 -197 -364 -262 -68 -67 -68 -67 -61 -966 4 -494 11 -905 15
-913 7 -12 21 -14 67 -10 58 5 58 5 53 590 -2 322 -4 721 -5 888 0 304 0 304
35 335 67 61 615 397 648 397 10 0 59 -24 108 -53 49 -29 145 -87 214 -127 69
-41 159 -94 200 -118 84 -49 125 -85 145 -122 10 -20 15 -133 19 -490 4 -256
9 -649 12 -874 3 -225 7 -412 9 -416 5 -9 92 -12 116 -5 18 6 20 13 15 53 -6
47 -11 320 -21 1247 -3 275 -8 512 -11 526 -5 27 -61 86 -101 108 -12 6 -28
17 -35 25 -8 7 -32 23 -54 35 -21 12 -59 35 -84 51 -25 16 -65 41 -90 55 -25
14 -70 41 -100 60 -59 36 -123 74 -199 116 -25 14 -68 39 -96 55 -31 19 -58
28 -70 25z"/>
<path d="M1341 2214 c-135 -36 -278 -149 -336 -265 -41 -80 -60 -184 -52 -285
7 -92 47 -179 121 -262 83 -93 80 -109 -33 -222 -66 -65 -92 -98 -96 -122 -3
-18 -4 -195 -3 -392 3 -360 3 -360 33 -368 17 -5 48 -6 70 -3 41 6 41 6 37
350 -4 339 -4 344 18 390 17 35 40 59 94 96 71 50 71 50 68 137 -5 155 -10
179 -41 192 -39 16 -97 78 -116 124 -41 99 -26 239 37 338 76 120 224 189 359
167 178 -29 306 -160 317 -326 8 -128 -44 -244 -138 -304 -24 -16 -24 -20 -26
-146 -1 -82 3 -135 10 -145 6 -8 29 -24 51 -36 44 -23 87 -60 110 -96 19 -29
24 -104 30 -456 2 -157 4 -286 5 -288 0 -2 30 -2 67 0 67 3 67 3 64 218 -6
549 -15 616 -90 655 -14 7 -45 31 -68 53 -38 34 -43 44 -43 81 0 51 9 68 71
143 76 92 105 219 85 373 -12 89 -92 223 -168 282 -94 73 -246 133 -333 132
-27 0 -74 -7 -104 -15z"/>
</g>
</svg>
